PathFileType  4	(X/Y/Z) /Users/callumsherry/opencap-sandboxes/opencap-core-sandbox/diagnostics/openpose_swapped
DataRate	CameraRate	NumFrames	NumMarkers	Units	OrigDataRate	OrigDataStartFrame	OrigNumFrames
60.0	60.0	10	20	m	60.0	570	651
Frame#	Time	Neck			RShoulder			RElbow			RWrist			LShoulder			LElbow			LWrist			midHip			RHip			RKnee			RAnkle			LHip			LKnee			LAnkle			LBigToe			LSmallToe			LHeel			RBigToe			RSmallToe			RHeel			
		X1	Y1	Z1	X2	Y2	Z2	X3	Y3	Z3	X4	Y4	Z4	X5	Y5	Z5	X6	Y6	Z6	X7	Y7	Z7	X8	Y8	Z8	X9	Y9	Z9	X10	Y10	Z10	X11	Y11	Z11	X12	Y12	Z12	X13	Y13	Z13	X14	Y14	Z14	X15	Y15	Z15	X16	Y16	Z16	X17	Y17	Z17	X18	Y18	Z18	X19	Y19	Z19	X20	Y20	Z20	

570	9.4833333	-0.5492200	1.3172200	-0.1762600	-0.5211300	1.3106100	0.0020200	-0.6154800	1.0426900	0.0903700	-0.5872900	0.7975500	0.1398200	-0.5116200	1.3252100	-0.3624500	-0.6075500	1.0663400	-0.4484400	-0.5432100	0.8330700	-0.4706900	-0.6402900	0.8066800	-0.1716200	-0.6369800	0.8090500	-0.0363200	-0.5308400	0.4766400	-0.0072300	-0.6445900	0.1192000	-0.0427700	-0.6723000	0.7996700	-0.3108100	-0.5036900	0.4808800	-0.3417100	-0.6569900	0.1102300	-0.3122000	-0.5079600	0.0328100	-0.3274100	-0.5330000	0.0377400	-0.3704100	-0.6986000	0.0767700	-0.2913600	-0.4878500	0.0465500	-0.0343700	-0.5080000	0.0633300	0.0211200	-0.7071100	0.0775600	-0.0784500
571	9.5000000	-0.5487700	1.3261700	-0.1760300	-0.5196700	1.3200600	0.0019600	-0.6138200	1.0636000	0.0892400	-0.5859400	0.8130000	0.1394400	-0.5135500	1.3350900	-0.3622600	-0.5901200	1.0776200	-0.4509400	-0.5433000	0.8436500	-0.4704200	-0.6424800	0.8222800	-0.1714600	-0.6773800	0.8188200	-0.0365700	-0.5148600	0.4803500	-0.0125200	-0.6448800	0.1192900	-0.0426200	-0.6713100	0.8058200	-0.3107000	-0.5226200	0.4700800	-0.3374800	-0.6569900	0.1106000	-0.3121100	-0.5070400	0.0326200	-0.3270500	-0.5326200	0.0379300	-0.3704100	-0.6960900	0.0778800	-0.2910600	-0.5063400	0.0391600	-0.0293100	-0.5083700	0.0635000	0.0211500	-0.7084800	0.0774000	-0.0782600
572	9.5166667	-0.5504500	1.3417300	-0.1765800	-0.5217000	1.3348100	0.0015800	-0.6334700	1.0779200	0.0948900	-0.5882600	0.8297800	0.1386100	-0.5316500	1.3504800	-0.3698800	-0.6087300	1.0978400	-0.4481400	-0.5631300	0.8520300	-0.4677800	-0.6411800	0.8283400	-0.1720500	-0.6557200	0.8277300	-0.0319000	-0.5604300	0.4737500	-0.0241200	-0.6447000	0.1191400	-0.0428500	-0.6727100	0.8163600	-0.3109000	-0.5411900	0.4767200	-0.3340700	-0.6575200	0.1099500	-0.3121000	-0.5081200	0.0325900	-0.3274400	-0.5331900	0.0375200	-0.3704500	-0.6988100	0.0764600	-0.2911600	-0.5054600	0.0391100	-0.0292200	-0.5230300	0.0520900	0.0270800	-0.7067900	0.0771000	-0.0784800
573	9.5333333	-0.5508500	1.3697000	-0.1767400	-0.5204100	1.3490100	0.0014100	-0.6334200	1.0889800	0.0940400	-0.5864400	0.8494100	0.1377700	-0.5145600	1.3735700	-0.3621600	-0.6101100	1.1182300	-0.4476700	-0.5630700	0.8730900	-0.4672500	-0.6418100	0.8338000	-0.1715100	-0.6362600	0.8408700	-0.0364700	-0.5625800	0.4776900	-0.0244900	-0.6452000	0.1190000	-0.0426400	-0.6710600	0.8281300	-0.3106100	-0.5429700	0.4814800	-0.3329900	-0.6572900	0.1104300	-0.3120600	-0.5047600	0.0391000	-0.3258700	-0.5307100	0.0394400	-0.3689500	-0.6972500	0.0655900	-0.2914800	-0.5064600	0.0389000	-0.0291800	-0.5234000	0.0520900	0.0271400	-0.7081500	0.0764400	-0.0782600
574	9.5500000	-0.5509000	1.3851400	-0.1767900	-0.5221600	1.3774200	0.0004200	-0.6167100	1.1148000	0.0882000	-0.5886900	0.8614600	0.1374700	-0.5317100	1.3934800	-0.3589300	-0.6099200	1.1344200	-0.4475400	-0.5645100	0.8892200	-0.4670700	-0.6216800	0.8424600	-0.1762500	-0.6366000	0.8467300	-0.0372200	-0.5627400	0.4899700	-0.0250200	-0.6450900	0.1188800	-0.0428100	-0.6317200	0.8442400	-0.3069100	-0.5610900	0.4777100	-0.3299900	-0.6570400	0.1100300	-0.3120500	-0.5057600	0.0391700	-0.3263100	-0.5124100	0.0410200	-0.3728600	-0.6986500	0.0646400	-0.2914800	-0.5052800	0.0392700	-0.0293200	-0.5080800	0.0634000	0.0211600	-0.7271200	0.0689300	-0.0731600
575	9.5666667	-0.5514900	1.4035500	-0.1769100	-0.5223900	1.3966400	-0.0002400	-0.6162300	1.1356800	0.0868400	-0.6097300	0.8740900	0.1330300	-0.5338000	1.4036400	-0.3587900	-0.6111300	1.1494900	-0.4473200	-0.5651700	0.9052900	-0.4561600	-0.6233400	0.8527100	-0.1761200	-0.6359800	0.8521900	-0.0368000	-0.5859300	0.4941200	-0.0307400	-0.6448500	0.1188300	-0.0424300	-0.6304900	0.8503900	-0.3069900	-0.5630300	0.4877300	-0.3292900	-0.6556100	0.1052800	-0.3115300	-0.5046900	0.0392300	-0.3258100	-0.5311400	0.0445300	-0.3694900	-0.6966900	0.0653100	-0.2916800	-0.4907600	0.0509100	-0.0350000	-0.5080000	0.0636700	0.0211300	-0.7269200	0.0570200	-0.0725300
576	9.5833333	-0.5515400	1.4047200	-0.1770200	-0.5220300	1.4054600	0.0000600	-0.6394000	1.1447200	0.0825300	-0.5729400	0.8904700	0.1310400	-0.5328100	1.4130400	-0.3591100	-0.6103900	1.1652500	-0.4471300	-0.5847000	0.9193100	-0.4533200	-0.6223600	0.8586200	-0.1765100	-0.6374200	0.8578300	-0.0374300	-0.5894400	0.4996000	-0.0416200	-0.6638100	0.1057900	-0.0379000	-0.6318400	0.8554200	-0.3068400	-0.5808600	0.4892900	-0.3265300	-0.6569700	0.1099400	-0.3122400	-0.5076500	0.0328400	-0.3272300	-0.5132900	0.0460000	-0.3628900	-0.6984300	0.0644000	-0.2917900	-0.4898000	0.0511200	-0.0349700	-0.5075600	0.0636500	0.0211900	-0.7010100	0.0671400	-0.0665700
577	9.6000000	-0.5522700	1.4228400	-0.1771800	-0.5218000	1.4151100	-0.0002100	-0.6173400	1.1565200	0.0863900	-0.6103800	0.9059500	0.1320400	-0.5178400	1.4311900	-0.3619400	-0.6114300	1.1752000	-0.4469500	-0.5854500	0.9297700	-0.4530500	-0.6230700	0.8635100	-0.1762000	-0.6357800	0.8575700	-0.0370800	-0.5900800	0.4986700	-0.0418400	-0.6444400	0.1192100	-0.0424700	-0.6301000	0.8613500	-0.3069600	-0.5835800	0.4990900	-0.3258100	-0.6574400	0.1103000	-0.3121000	-0.5066600	0.0328000	-0.3268600	-0.5132300	0.0460500	-0.3734900	-0.6967600	0.0653900	-0.2915100	-0.4907100	0.0509100	-0.0349600	-0.5078200	0.0637300	0.0212000	-0.7017100	0.0673700	-0.0664400
578	9.6166667	-0.5521100	1.4379700	-0.1771700	-0.5385000	1.4257700	0.0044200	-0.6338100	1.1608400	0.0922800	-0.5961200	0.9194800	0.1259100	-0.5169600	1.4498300	-0.3619300	-0.6109800	1.1859100	-0.4469900	-0.5857100	0.9405400	-0.4529000	-0.6214100	0.8643500	-0.1764900	-0.6185900	0.8658100	-0.0425900	-0.5917100	0.5044600	-0.0423100	-0.6446000	0.1193500	-0.0428200	-0.6118900	0.8636700	-0.3105800	-0.6025900	0.4951600	-0.3225300	-0.6577500	0.1099500	-0.3119800	-0.5078700	0.0326700	-0.3273900	-0.5137300	0.0457100	-0.3736300	-0.6986100	0.0645600	-0.2913500	-0.4902900	0.0508000	-0.0349800	-0.5077300	0.0635800	0.0211800	-0.7249700	0.0633400	-0.0735500
579	9.6333333	-0.5522700	1.4468600	-0.1771600	-0.5380200	1.4353000	0.0042500	-0.6174900	1.1717500	0.0858700	-0.5941900	0.9285500	0.1253200	-0.5175600	1.4545700	-0.3615500	-0.6116700	1.1958400	-0.4468400	-0.5858000	0.9508400	-0.4526000	-0.6230100	0.8744600	-0.1762100	-0.6360400	0.8684600	-0.0373100	-0.6134800	0.5038300	-0.0477800	-0.6446900	0.1129900	-0.0430300	-0.6297400	0.8724300	-0.3068200	-0.6026700	0.5004800	-0.3106500	-0.6781200	0.1029600	-0.3082700	-0.5047600	0.0392400	-0.3259600	-0.5130600	0.0463400	-0.3735200	-0.7180800	0.0573900	-0.2874300	-0.5068000	0.0389900	-0.0292800	-0.5252600	0.0565300	0.0265900	-0.7253900	0.0626800	-0.0732000
